<?xml version="1.0" encoding="UTF-8" standalone="no"?>
<svg
   xmlns:dc="http://purl.org/dc/elements/1.1/"
   xmlns:cc="http://creativecommons.org/ns#"
   xmlns:rdf="http://www.w3.org/1999/02/22-rdf-syntax-ns#"
   xmlns:svg="http://www.w3.org/2000/svg"
   xmlns="http://www.w3.org/2000/svg"
   id="svg8"
   version="1.1"
   viewBox="0 0 210 297"
   height="297mm"
   width="210mm">
  <defs
     id="defs2">
    <clipPath
       id="clipPath3735"
       clipPathUnits="userSpaceOnUse">
      <path
         id="path3737"
         d="m 88.711011,118.27402 6e-6,-5e-5 -0.162728,-1.05883 1.457193,-0.0801 v -2.16325 l -2.413476,-1.72258 c -0.591985,0.32048 -2.550089,-5.80873 -2.550089,-5.80873 l 3.187611,1.52229 1.411656,-0.28042 0.273224,-2.08313 -1.821492,-0.56084 0.353508,-1.12585 h 9.812766 l -0.01146,3.93006 -1.138433,0.4006 -0.85767,-2.61087 -3.571875,-0.1564 v 4.52209 h 4.497917 v 1.85209 H 92.65835 l 0.1537,4.36562 2.156994,0.0796 -0.172619,1.37563 -5.018632,0.1066 -1.066785,-0.50347 c 0,0 -1e-6,0 0,0 z"
         style="fill:none;stroke:#000000;stroke-width:0.05979542px;stroke-linecap:butt;stroke-linejoin:miter;stroke-opacity:1" />
    </clipPath>
    <clipPath
       id="clipPath3741"
       clipPathUnits="userSpaceOnUse">
      <path
         id="path3743"
         d="m 122.4282,195.17285 -0.0348,1.23216 1.64192,0.63165 4.35416,11.64652 1.04538,0.76515 1.82436,-1.63266 0.67164,-2.79498 1.39245,1.06949 0.46914,2.28011 1.76595,0.43737 1.18529,-2.09203 -0.80705,-0.8087 0.64521,-1.85853 0.2164,-5.56795 -2.18615,-0.25028 0.80483,-1.2135 1.43974,-0.60625 -0.25585,-1.4365 -5.33539,0.0186 -0.0982,1.37859 1.52623,0.53021 -2.8812,7.5748 -2.63886,-7.31407 0.13655,-0.63785 1.01118,-0.12345 -0.19521,-1.48434 z"
         style="fill:none;stroke:#000000;stroke-width:0.07567163px;stroke-linecap:butt;stroke-linejoin:miter;stroke-opacity:1" />
    </clipPath>
  </defs>
  <metadata
     id="metadata5">
    <rdf:RDF>
      <cc:Work
         rdf:about="">
        <dc:format>image/svg+xml</dc:format>
        <dc:type
           rdf:resource="http://purl.org/dc/dcmitype/StillImage" />
        <dc:title></dc:title>
      </cc:Work>
    </rdf:RDF>
  </metadata>
  <g
     id="layer1">
    <g
       style="fill:#2b2200"
       transform="translate(39.55589,14.967094)"
       id="g3751">
      <g
         style="fill:#2b2200"
         id="g3710"
         transform="matrix(4.1501831,0,0,4.7176075,-336.87554,-419.44973)"
         clip-path="url(#clipPath3735)">
        <path
           style="fill:#2b2200;stroke-width:0.26458335"
           d="m 83.41935,111.79167 v -11.37708 h 10.318751 10.318749 v 11.37708 11.37709 H 93.738101 83.41935 Z"
           id="path3714" />
        <path
           style="fill:#2b2200;stroke-width:0.26458335"
           d="m 88.711017,118.27397 c 0,-0.21829 -0.02302,-0.48618 -0.05115,-0.59532 -0.02813,-0.10914 0.299292,-0.2585 0.727604,-0.33191 0.688912,-0.11809 0.788605,-0.25422 0.864181,-1.18008 0.05489,-0.67243 -0.04657,-1.14495 -0.28379,-1.32172 -0.203072,-0.15133 -0.50138,-0.51327 -0.662907,-0.80431 -0.200222,-0.36076 -0.567968,-0.52916 -1.155563,-0.52916 -0.843153,0 -0.868499,-0.0345 -1.166658,-1.5875 -0.167628,-0.87313 -0.619814,-2.12329 -1.004855,-2.77813 -0.864609,-1.47045 -0.897748,-1.85946 -0.09409,-1.10445 0.3368,0.3164 0.806024,0.57528 1.042718,0.57528 0.236694,0 0.503938,0.11907 0.593875,0.26459 0.237881,0.3849 1.772233,0.30829 2.332521,-0.11647 0.350214,-0.26549 0.457788,-0.63972 0.396875,-1.38065 -0.07669,-0.93285 -0.154266,-1.02324 -0.943459,-1.09933 -0.712186,-0.0687 -0.859895,-0.19366 -0.859895,-0.72761 v -0.64469 h 4.906383 4.906383 l -0.07774,1.91823 c -0.07006,1.72891 -0.133565,1.92619 -0.643399,1.99889 -0.460174,0.0656 -0.632866,-0.13174 -0.926041,-1.05834 l -0.360381,-1.13899 -1.785937,-0.0782 -1.785938,-0.0782 v 2.26105 2.26104 h 2.248959 2.248958 v 0.92605 0.92604 h -2.259659 -2.259659 l 0.07685,2.18281 0.07685,2.18281 0.992187,0.0821 c 0.852958,0.0706 0.992188,0.1727 0.992188,0.7276 v 0.64549 h -3.042709 c -2.528241,0 -3.042708,-0.0671 -3.042708,-0.39687 z"
           id="path3712" />
      </g>
      <g
         style="fill:#2b2200"
         id="g3727"
         transform="matrix(2.4141435,-2.0845919,2.4885805,2.9151557,-732.52131,-187.55836)"
         clip-path="url(#clipPath3741)">
        <path
           style="fill:#2b2200;stroke-width:0.26458332"
           d="m 120.49881,200.99403 v -9.92187 h 9.525 9.525 v 9.92187 9.92188 h -9.525 -9.525 z"
           id="path3731" />
        <path
           style="fill:#2b2200;stroke-width:0.26458332"
           d="m 126.3169,202.93756 c -2.22622,-6.07512 -2.26159,-6.1472 -3.12569,-6.37112 -0.6985,-0.181 -0.85733,-0.34361 -0.79101,-0.80985 0.0795,-0.55915 0.1984,-0.58339 2.86111,-0.58339 2.67958,0 2.78112,0.0211 2.86267,0.59531 0.0508,0.35799 -0.0546,0.59693 -0.26458,0.59937 -1.1396,0.0132 -1.11275,0.37834 0.32839,4.46516 0.77529,2.1986 1.48619,3.99745 1.57976,3.99745 0.0936,0 0.80136,-1.69664 1.57286,-3.77031 0.7715,-2.07367 1.45412,-3.90783 1.51694,-4.07592 0.0639,-0.17097 -0.25041,-0.38569 -0.71342,-0.48738 -0.65445,-0.14374 -0.8106,-0.30124 -0.74627,-0.75273 0.0768,-0.5391 0.22157,-0.57095 2.5949,-0.57095 2.37333,0 2.51808,0.0318 2.5949,0.57095 0.0633,0.44406 -0.09,0.60859 -0.68969,0.7403 -0.68842,0.1512 -0.89197,0.38381 -1.58856,1.8153 -0.0578,0.11888 0.0556,0.19406 0.25211,0.16709 0.5968,-0.0819 1.13138,0.009 1.52904,0.26098 0.55917,0.35387 0.47594,5.45143 -0.0994,6.08717 -0.46739,0.51645 -0.53823,1.2285 -0.14633,1.47071 0.40619,0.25104 0.31408,1.36792 -0.15119,1.83319 -1.13427,1.13426 -2.55265,-0.42544 -1.84754,-2.03163 0.13748,-0.31316 0.0871,-0.46354 -0.15577,-0.46465 -0.19747,-9e-4 -0.70698,-0.18307 -1.13225,-0.40484 -0.89826,-0.46843 -1.04619,-0.33716 -1.5016,1.33251 -0.47523,1.74234 -0.92294,2.37402 -1.74115,2.45659 -0.74437,0.0751 -0.75307,0.0575 -2.99824,-6.06931 z"
           id="path3729" />
      </g>
    </g>
  </g>
</svg>
